<svg xmlns="http://www.w3.org/2000/svg"
    xmlns:xlink="http://www.w3.org/1999/xlink" width="500" height="500" preserveAspectRatio="xMidYMid meet">
    <defs>
    </defs>
    <g id="board-viewbox" transform="matrix(0 -251 251 0 251 251)">
        <g id="board-scene" transform="matrix(1 0 0 1 0 0)">
            <g>
                <path fill="none" stroke="gray" stroke-width="0.01195219123505976" transform="matrix(1 0 0 1 0 -0.9)" stroke-linecap="round" stroke-linejoin="round" d="M 0 0 L 0 1.8 L 0 1.8 L 0.014762 1.752228 L 0 1.8 L -0.014763 1.752228 "></path>
                <path fill="none" stroke="gray" stroke-width="0.01195219123505976" transform="matrix(1 0 0 1 -0.9 0)" stroke-linecap="round" stroke-linejoin="round" d="M 0 0 L 1.8 0 L 1.8 0 L 1.752228 -0.014763 L 1.8 0 L 1.752228 0.014762 "></path>
                <text class="" fill="gray" stroke="gray" stroke-width="0.01195219123505976" transform="matrix(0 0.003984 -0.003985 0 0 0.9)" text-decoration="none" dominant-baseline="middle" dx="9.6" font-family="sans-serif" font-size="18" id="undefined">x</text>
                <text class="" fill="gray" stroke="gray" stroke-width="0.01195219123505976" transform="matrix(0 0.003984 -0.003985 0 0.9 0)" text-anchor="middle" text-decoration="none" dominant-baseline="middle" dy="-16" font-family="sans-serif" font-size="18" id="undefined">y</text>
            </g>
        </g>
    </g>
</svg>