<svg xmlns="http://www.w3.org/2000/svg"
    xmlns:xlink="http://www.w3.org/1999/xlink" width="500" height="500" preserveAspectRatio="xMidYMid meet">
    <defs>
    </defs>
    <g id="my-board-viewbox" transform="matrix(0 -250 250 0 250 250)">
        <g id="my-board-scene" transform="matrix(1 0 0 1 0 0)">
            <path fill="none" stroke="#0000FF" stroke-opacity="0.6" stroke-width="0.012" transform="matrix(1 0 0 1 0.4 0.4)" stroke-linecap="round" stroke-linejoin="round" d="M 0 0 L 0.6 0.6 L 0.6 0.6 L 0.506636 0.423129 L 0.6 0.6 L 0.423129 0.506636"></path>
            <text fill="gray" stroke="gray" stroke-width="0.012" transform="matrix(0 0.003999 -0.004 0 0.4 0.4)" text-decoration="none" font-family="sans-serif" font-size="20" id="null">(1,1)</text>
            <path fill="none" stroke="#0000FF" stroke-opacity="0.6" stroke-width="0.012" transform="matrix(1 0 0 1 0.4 -0.4)" stroke-linecap="round" stroke-linejoin="round" d="M 0 0 L 0.6 -0.6 L 0.6 -0.6 L 0.423129 -0.506637 L 0.6 -0.6 L 0.506636 -0.42313"></path>
            <text fill="gray" stroke="gray" stroke-width="0.012" transform="matrix(0 0.003999 -0.004 0 0.4 -0.4)" text-decoration="none" font-family="sans-serif" font-size="20" id="null">(-1,1)</text>
            <path fill="none" stroke="#0000FF" stroke-opacity="0.6" stroke-width="0.012" transform="matrix(1 0 0 1 -0.4 -0.4)" stroke-linecap="round" stroke-linejoin="round" d="M 0 0 L -0.6 -0.6 L -0.6 -0.6 L -0.506637 -0.42313 L -0.6 -0.6 L -0.42313 -0.506637"></path>
            <text fill="gray" stroke="gray" stroke-width="0.012" transform="matrix(0 0.003999 -0.004 0 -0.4 -0.4)" text-decoration="none" font-family="sans-serif" font-size="20" id="null">(-1,-1)</text>
            <path fill="none" stroke="#0000FF" stroke-opacity="0.6" stroke-width="0.012" transform="matrix(1 0 0 1 -0.4 0.4)" stroke-linecap="round" stroke-linejoin="round" d="M 0 0 L -0.6 0.6 L -0.6 0.6 L -0.42313 0.506636 L -0.6 0.6 L -0.506637 0.423129"></path>
            <text fill="gray" stroke="gray" stroke-width="0.012" transform="matrix(0 0.003999 -0.004 0 -0.4 0.4)" text-decoration="none" font-family="sans-serif" font-size="20" id="null">(1,-1)</text>
            <g id="grid" opacity="0.4">
                <path fill="none" stroke="gray" stroke-width="0.008" d="M -0.8 -1 L -0.8 1"></path>
                <path fill="none" stroke="gray" stroke-width="0.008" d="M -0.600001 -1 L -0.600001 1"></path>
                <path fill="none" stroke="gray" stroke-width="0.008" d="M -0.4 -1 L -0.4 1"></path>
                <path fill="none" stroke="gray" stroke-width="0.008" d="M -0.2 -1 L -0.2 1"></path>
                <path fill="none" stroke="gray" stroke-width="0.008" d="M 0 -1 L 0 1"></path>
                <path fill="none" stroke="gray" stroke-width="0.008" d="M 0.2 -1 L 0.2 1"></path>
                <path fill="none" stroke="gray" stroke-width="0.008" d="M 0.4 -1 L 0.4 1"></path>
                <path fill="none" stroke="gray" stroke-width="0.008" d="M 0.6 -1 L 0.6 1"></path>
                <path fill="none" stroke="gray" stroke-width="0.008" d="M 0.8 -1 L 0.8 1"></path>
                <path fill="none" stroke="gray" stroke-width="0.008" d="M -1 -0.8 L 1 -0.8"></path>
                <path fill="none" stroke="gray" stroke-width="0.008" d="M -1 -0.600001 L 1 -0.600001"></path>
                <path fill="none" stroke="gray" stroke-width="0.008" d="M -1 -0.4 L 1 -0.4"></path>
                <path fill="none" stroke="gray" stroke-width="0.008" d="M -1 -0.2 L 1 -0.2"></path>
                <path fill="none" stroke="gray" stroke-width="0.008" d="M -1 0 L 1 0"></path>
                <path fill="none" stroke="gray" stroke-width="0.008" d="M -1 0.2 L 1 0.2"></path>
                <path fill="none" stroke="gray" stroke-width="0.008" d="M -1 0.4 L 1 0.4"></path>
                <path fill="none" stroke="gray" stroke-width="0.008" d="M -1 0.6 L 1 0.6"></path>
                <path fill="none" stroke="gray" stroke-width="0.008" d="M -1 0.8 L 1 0.8"></path>
            </g>
            <g id="axes">
                <path fill="none" stroke="gray" stroke-width="0.012" transform="matrix(1 0 0 1 0 -0.9)" stroke-linecap="round" stroke-linejoin="round" d="M 0 0 L 0 1.8 L 0 1.8 L 0.014762 1.752228 L 0 1.8 L -0.014763 1.752228"></path>
                <path fill="none" stroke="gray" stroke-width="0.012" transform="matrix(1 0 0 1 -0.9 0)" stroke-linecap="round" stroke-linejoin="round" d="M 0 0 L 1.8 0 L 1.8 0 L 1.752228 -0.014763 L 1.8 0 L 1.752228 0.014762"></path>
                <text fill="gray" stroke="gray" stroke-width="0.012" transform="matrix(0 0.003999 -0.004 0 0 0.9)" text-decoration="none" dominant-baseline="middle" dx="9.6" font-family="sans-serif" font-size="20" id="null">x</text>
                <text fill="gray" stroke="gray" stroke-width="0.012" transform="matrix(0 0.003999 -0.004 0 0.9 0)" text-anchor="middle" text-decoration="none" dominant-baseline="middle" dy="-16" font-family="sans-serif" font-size="20" id="null">y</text>
            </g>
        </g>
    </g>
</svg>