<svg xmlns="http://www.w3.org/2000/svg"
    xmlns:xlink="http://www.w3.org/1999/xlink" width="500" height="500" preserveAspectRatio="xMidYMid meet">
    <defs>
    </defs>
    <g id="my-board-viewbox" transform="matrix(0 -5 5 0 250 250)">
        <g id="my-board-scene" transform="matrix(1 0 0 1 0 0)">
            <g transform="matrix(1 0 0 1 0 0)">
                <path fill="gray" stroke="gray" stroke-width="0.6" d="M 0 0.8 C 0.441827 0.8 0.8 0.441827 0.8 0 C 0.8 -0.441828 0.441827 -0.8 0 -0.8 C -0.441828 -0.800001 -0.8 -0.441828 -0.8 -0.000001 C -0.800001 0.441827 -0.441828 0.8 0 0.8 Z"></path>
                <text fill="gray" stroke="gray" stroke-width="0.6" transform="matrix(0 0.199999 -0.2 0 0 0)" text-decoration="none" dx="10" dy="-10" font-family="sans-serif" font-size="20" id="null">(0,0)</text>
            </g>
            <g transform="matrix(1 0 0 1 40 -40)">
                <path fill="gray" stroke="gray" stroke-width="0.6" d="M 0 0.8 C 0.441827 0.8 0.8 0.441827 0.8 0 C 0.8 -0.441828 0.441827 -0.8 0 -0.8 C -0.441828 -0.800001 -0.8 -0.441828 -0.8 -0.000001 C -0.800001 0.441827 -0.441828 0.8 0 0.8 Z"></path>
                <text fill="gray" stroke="gray" stroke-width="0.6" transform="matrix(0 0.199999 -0.2 0 0 0)" text-decoration="none" dominant-baseline="middle" dx="10" font-family="sans-serif" font-size="20" id="null">(-40,40)</text>
            </g>
            <g transform="matrix(1 0 0 1 -40 -40)">
                <path fill="gray" stroke="gray" stroke-width="0.6" d="M 0 0.8 C 0.441827 0.8 0.8 0.441827 0.8 0 C 0.8 -0.441828 0.441827 -0.8 0 -0.8 C -0.441828 -0.800001 -0.8 -0.441828 -0.8 -0.000001 C -0.800001 0.441827 -0.441828 0.8 0 0.8 Z"></path>
                <text fill="gray" stroke="gray" stroke-width="0.6" transform="matrix(0 0.199999 -0.2 0 0 0)" text-decoration="none" dominant-baseline="middle" dx="10" font-family="sans-serif" font-size="20" id="null">(-40,-40)</text>
            </g>
            <g transform="matrix(1 0 0 1 -40 40)">
                <path fill="gray" stroke="gray" stroke-width="0.6" d="M 0 0.8 C 0.441827 0.8 0.8 0.441827 0.8 0 C 0.8 -0.441828 0.441827 -0.8 0 -0.8 C -0.441828 -0.800001 -0.8 -0.441828 -0.8 -0.000001 C -0.800001 0.441827 -0.441828 0.8 0 0.8 Z"></path>
                <text fill="gray" stroke="gray" stroke-width="0.6" transform="matrix(0 0.199999 -0.2 0 0 0)" text-anchor="end" text-decoration="none" dominant-baseline="middle" dx="-10" font-family="sans-serif" font-size="20" id="null">(40,-40)</text>
            </g>
            <g transform="matrix(1 0 0 1 40 40)">
                <path fill="gray" stroke="gray" stroke-width="0.6" d="M 0 0.8 C 0.441827 0.8 0.8 0.441827 0.8 0 C 0.8 -0.441828 0.441827 -0.8 0 -0.8 C -0.441828 -0.800001 -0.8 -0.441828 -0.8 -0.000001 C -0.800001 0.441827 -0.441828 0.8 0 0.8 Z"></path>
                <text fill="gray" stroke="gray" stroke-width="0.6" transform="matrix(0 0.199999 -0.2 0 0 0)" text-anchor="end" text-decoration="none" dominant-baseline="middle" dx="-10" font-family="sans-serif" font-size="20" id="null">(40,40)</text>
            </g>
            <text fill="gray" stroke="gray" stroke-width="0.6" transform="matrix(0 0.199999 -0.2 0 25 10)" text-decoration="none" font-family="sans-serif" font-size="20" id="null">board.goofy: false</text>
            <text fill="gray" stroke="gray" stroke-width="0.6" transform="matrix(0 0.199999 -0.2 0 20 10)" text-decoration="none" font-family="sans-serif" font-size="20" id="null">board.crazy: false</text>
            <g id="grid" opacity="0.4">
                <path fill="none" stroke="gray" stroke-width="0.4" d="M -40 -50 L -40 50"></path>
                <path fill="none" stroke="gray" stroke-width="0.4" d="M -30 -50 L -30 50"></path>
                <path fill="none" stroke="gray" stroke-width="0.4" d="M -20 -50 L -20 50"></path>
                <path fill="none" stroke="gray" stroke-width="0.4" d="M -10 -50 L -10 50"></path>
                <path fill="none" stroke="gray" stroke-width="0.4" d="M 0 -50 L 0 50"></path>
                <path fill="none" stroke="gray" stroke-width="0.4" d="M 10 -50 L 10 50"></path>
                <path fill="none" stroke="gray" stroke-width="0.4" d="M 20 -50 L 20 50"></path>
                <path fill="none" stroke="gray" stroke-width="0.4" d="M 30 -50 L 30 50"></path>
                <path fill="none" stroke="gray" stroke-width="0.4" d="M 40 -50 L 40 50"></path>
                <path fill="none" stroke="gray" stroke-width="0.4" d="M -50 -40 L 50 -40"></path>
                <path fill="none" stroke="gray" stroke-width="0.4" d="M -50 -30 L 50 -30"></path>
                <path fill="none" stroke="gray" stroke-width="0.4" d="M -50 -20 L 50 -20"></path>
                <path fill="none" stroke="gray" stroke-width="0.4" d="M -50 -10 L 50 -10"></path>
                <path fill="none" stroke="gray" stroke-width="0.4" d="M -50 0 L 50 0"></path>
                <path fill="none" stroke="gray" stroke-width="0.4" d="M -50 10 L 50 10"></path>
                <path fill="none" stroke="gray" stroke-width="0.4" d="M -50 20 L 50 20"></path>
                <path fill="none" stroke="gray" stroke-width="0.4" d="M -50 30 L 50 30"></path>
                <path fill="none" stroke="gray" stroke-width="0.4" d="M -50 40 L 50 40"></path>
            </g>
            <g id="axes">
                <path fill="none" stroke="gray" stroke-width="0.6" transform="matrix(1 0 0 1 0 -45)" stroke-linecap="round" stroke-linejoin="round" d="M 0 0 L 0 90 L 0 90 L 0.738104 87.611443 L 0 90 L -0.738105 87.611443"></path>
                <path fill="none" stroke="gray" stroke-width="0.6" transform="matrix(1 0 0 1 -45 0)" stroke-linecap="round" stroke-linejoin="round" d="M 0 0 L 90 0 L 90 0 L 87.611443 -0.738105 L 90 0 L 87.611443 0.738104"></path>
                <text fill="gray" stroke="gray" stroke-width="0.6" transform="matrix(0 0.199999 -0.2 0 0 45)" text-decoration="none" dominant-baseline="middle" dx="9.6" font-family="sans-serif" font-size="20" id="null">x</text>
                <text fill="gray" stroke="gray" stroke-width="0.6" transform="matrix(0 0.199999 -0.2 0 45 0)" text-anchor="middle" text-decoration="none" dominant-baseline="middle" dy="-16" font-family="sans-serif" font-size="20" id="null">y</text>
            </g>
            <path fill="#FFFF00" fill-opacity="0.3" stroke="#FFCC00" stroke-opacity="0.6" stroke-width="0.8" d="M -10 -20 L -10 20 L 10 20 L 10 -20 Z"></path>
        </g>
    </g>
</svg>