<svg xmlns="http://www.w3.org/2000/svg"
    xmlns:xlink="http://www.w3.org/1999/xlink" width="500" height="500" preserveAspectRatio="xMidYMid meet">
    <defs>
    </defs>
    <g id="my-board-viewbox" transform="matrix(0 -250 250 0 250 250)">
        <g id="my-board-scene" transform="matrix(1 0 0 1 0 0)">
            <path fill="gray" stroke="gray" stroke-width="0.012" d="M 0 0.016 C 0.008836 0.016 0.016 0.008836 0.016 0 C 0.016 -0.008837 0.008836 -0.016 0 -0.016 C -0.008837 -0.016 -0.016 -0.008837 -0.016 -0.000001 C -0.016001 0.008836 -0.008837 0.016 0 0.016 Z "></path>
            <path fill="gray" stroke="gray" stroke-width="0.012" transform="matrix(1 0 0 1 0 0.5)" d="M 0 0.016 C 0.008836 0.016 0.016 0.008836 0.016 0 C 0.016 -0.008837 0.008836 -0.016 0 -0.016 C -0.008837 -0.016 -0.016 -0.008837 -0.016 -0.000001 C -0.016001 0.008836 -0.008837 0.016 0 0.016 Z "></path>
            <path fill="gray" stroke="gray" stroke-width="0.012" transform="matrix(1 0 0 1 0.5 0)" d="M 0 0.016 C 0.008836 0.016 0.016 0.008836 0.016 0 C 0.016 -0.008837 0.008836 -0.016 0 -0.016 C -0.008837 -0.016 -0.016 -0.008837 -0.016 -0.000001 C -0.016001 0.008836 -0.008837 0.016 0 0.016 Z "></path>
            <path fill="gray" stroke="gray" stroke-width="0.012" transform="matrix(1 0 0 1 0.75 0.75)" d="M 0 0.016 C 0.008836 0.016 0.016 0.008836 0.016 0 C 0.016 -0.008837 0.008836 -0.016 0 -0.016 C -0.008837 -0.016 -0.016 -0.008837 -0.016 -0.000001 C -0.016001 0.008836 -0.008837 0.016 0 0.016 Z "></path>
            <path stroke="gray" stroke-width="0.012" d="M 0 0 L 0.75 0.75 "></path>
            <path fill="none" stroke="gray" stroke-width="0.012" stroke-linecap="round" stroke-linejoin="round" d="M 0 0 L 0 1 L 0 1 L 0.059048 0.808915 L 0 1 L -0.059049 0.808915 "></path>
            <path fill="none" stroke="gray" stroke-width="0.012" stroke-linecap="round" stroke-linejoin="round" d="M 0 0 L 1 0 L 1 0 L 0.808915 -0.059049 L 1 0 L 0.808915 0.059048 "></path>
            <path fill="none" stroke="gray" stroke-width="0.012" d="M -0.5 -0.809017 L -0.5 0.809016 L 0.5 0.809016 L 0.5 -0.809017 Z "></path>
            <path fill="none" stroke="gray" stroke-width="0.012" d="M 0 1 C 0.552284 1 1 0.552284 1 0 C 1 -0.552285 0.552284 -1 0 -1 C -0.552285 -1 -1 -0.552285 -1 -0.000001 C -1.000001 0.552284 -0.552285 1 0 1 Z "></path>
            <path fill="none" stroke="gray" stroke-width="0.012" d="M 0 1 C 0.276142 1 0.5 0.552284 0.5 0 C 0.5 -0.552285 0.276142 -1 0 -1 C -0.276143 -1 -0.5 -0.552285 -0.5 -0.000001 C -0.500001 0.552284 -0.276143 1 0 1 Z "></path>
            <path fill="none" stroke="gray" stroke-width="0.012" d="M 1 0 L -0.5 -0.866026 L -0.5 0.866025 Z "></path>
            <text class="" fill="gray" stroke="gray" stroke-width="0.012" transform="matrix(0 0.003999 -0.004 0 0 0)" text-decoration="none" font-family="sans-serif" font-size="18" id="undefined">Hello, World</text>
            <path fill="none" stroke="gray" stroke-width="0.012" d="M 0 0.5 C 0 0.5 0.075253 0.501279 0.154508 0.475528 C 0.194135 0.462652 0.260183 0.428999 0.293892 0.404508 C 0.327601 0.380017 0.380017 0.327601 0.404508 0.293892 C 0.428999 0.260183 0.462652 0.194135 0.475528 0.154508 C 0.488403 0.114881 0.5 0.041666 0.5 0 L 0.45 0 C 0.45 0 0.450187 0.089058 0.415745 0.172207 C 0.398525 0.213782 0.350017 0.286378 0.318198 0.318198 C 0.286378 0.350017 0.213782 0.398525 0.172207 0.415745 C 0.130632 0.432966 0.045 0.45 0 0.45 L 0 0.5 Z "></path>
            <path fill="none" stroke="gray" stroke-width="0.012" d="M -0.5 0 L -0.75 -0.25 L -1 0 L -0.75 0.25 Z "></path>
            <path fill="none" stroke="gray" stroke-width="0.012" d="M 0 0 C 0.264 -0.000001 0.698971 0.243904 0.8 0 C 0.942875 -0.344933 0.373352 -0.8 0 -0.8 C -0.373353 -0.8 -0.942876 -0.344933 -0.8 0 C -0.698972 0.243904 -0.264 0 0 0 Z "></path>
        </g>
    </g>
</svg>