<svg xmlns="http://www.w3.org/2000/svg"
    xmlns:xlink="http://www.w3.org/1999/xlink" width="600" height="600" preserveAspectRatio="xMidYMid meet">
    <defs>
    </defs>
    <g id="my-board-viewbox" transform="matrix(0 -60.4 60.4 0 302 302)">
        <g id="my-board-scene" transform="matrix(1 0 0 1 0 0)">
            <path class="" id="A" fill-opacity="0.0" transform="matrix(1 0 0 1 -2 -4)" visibility="hidden" d="M 0 0.066225 C 0.036575 0.066225 0.066225 0.036575 0.066225 0 C 0.066225 -0.036576 0.036575 -0.066226 0 -0.066226 C -0.036576 -0.066226 -0.066226 -0.036576 -0.066226 -0.000001 C -0.066226 0.036575 -0.036576 0.066225 0 0.066225 Z "></path>
            <path class="" id="B" transform="matrix(1 0 0 1 -2 4)" visibility="hidden" d="M 0 0.066225 C 0.036575 0.066225 0.066225 0.036575 0.066225 0 C 0.066225 -0.036576 0.036575 -0.066226 0 -0.066226 C -0.036576 -0.066226 -0.066226 -0.036576 -0.066226 -0.000001 C -0.066226 0.036575 -0.036576 0.066225 0 0.066225 Z "></path>
            <path class="" id="C" transform="matrix(1 0 0 1 2 4)" visibility="hidden" d="M 0 0.066225 C 0.036575 0.066225 0.066225 0.036575 0.066225 0 C 0.066225 -0.036576 0.036575 -0.066226 0 -0.066226 C -0.036576 -0.066226 -0.066226 -0.036576 -0.066226 -0.000001 C -0.066226 0.036575 -0.036576 0.066225 0 0.066225 Z "></path>
            <path class="" id="ramp" transform="matrix(1 0 0 1 0 0)" d="M -2 -4 L -2 4 L 2 4 Z " fill="rgba(0, 191, 168, 0.5)" stroke="rgb(0, 191, 168)" stroke-width="0.06"></path>
            <path class="" id="box" fill="#FFFF00" fill-opacity="0.3" stroke="#FFCC00" stroke-opacity="0.6" stroke-width="0.06" transform="matrix(0.894427 -0.447214 0.447213 0.894427 1.447213 1.776393)" d="M -0.5 -1 L -0.5 1 L 0.5 1 L 0.5 -1 Z "></path>
            <text class="" id="text-A" fill="#000" stroke="#000" opacity="0.4" transform="matrix(0 0.016556 -0.016557 0 -2 -4)" text-anchor="end" text-decoration="none" dominant-baseline="middle" dx="-5" font-family="Lato" font-size="20">A</text>
            <text class="" id="text-B" fill="#000" stroke="#000" opacity="0.4" transform="matrix(0 0.016556 -0.016557 0 -2 4)" text-decoration="none" dominant-baseline="middle" dx="5" font-family="Lato" font-size="20">B</text>
            <text class="" id="text-C" fill="#000" stroke="#000" opacity="0.4" transform="matrix(0 0.016556 -0.016557 0 2 4)" text-decoration="none" dominant-baseline="middle" dx="5" font-family="Lato" font-size="20">C</text>
            <text class="" id="text-Box" fill="#000" stroke="#000" transform="matrix(0.007404 0.014808 -0.014809 0.007404 1.447213 1.776393)" text-anchor="middle" text-decoration="none" dominant-baseline="middle" font-family="Lato" font-size="20">Box</text>
            <text class="" id="text-Ramp" fill="#000" stroke="#000" transform="matrix(0.007404 0.014808 -0.014809 0.007404 0 0)" text-anchor="middle" text-decoration="none" dominant-baseline="hanging" font-family="Lato" font-size="20">Ramp</text>
            <path class="" id="Fg" fill="none" stroke-width="2" vector-effect="non-scaling-stroke" transform="matrix(1 0 0 1 1.447213 1.776393)" stroke-linecap="round" stroke-linejoin="round" d="M 0 0 L -2 0 L -2 0 L -1.761145 0.07381 L -2 0 L -1.761145 -0.073811 " stroke-opacity="0.4"></path>
            <path class="" id="Fn" fill="none" stroke-opacity="0.4" transform="matrix(1 0 0 1 1.447213 1.776393)" stroke-linecap="round" stroke-linejoin="round" d="M 0 0 L 1.34164 -0.670821 L 1.34164 -0.670821 L 1.094992 -0.630019 L 1.34164 -0.670821 L 1.16101 -0.497983 " stroke-width="2"></path>
            <text class="" id="text-Fn" fill="#000" stroke="#000" transform="matrix(0.007404 0.014808 -0.014809 0.007404 2.878297 1.060851)" text-anchor="middle" text-decoration="none" font-family="Lato" font-size="20">Fn</text>
            <path class="" id="Fs" fill="none" transform="matrix(1 0 0 1 1.447213 1.776393)" stroke-linecap="round" stroke-linejoin="round" d="M 0 0 L 0.67082 1.34164 L 0.67082 1.34164 L 0.630018 1.094992 L 0.67082 1.34164 L 0.497982 1.16101 " stroke-opacity="0.4" stroke-width="2"></path>
            <path class="" id="arrow" fill="none" stroke-width="4" vector-effect="non-scaling-stroke" transform="matrix(1 0 0 1 0 0)" stroke-linecap="round" stroke-linejoin="round" d="M -0.5 0 L 0.5 0 L 0.5 0 L 0.261144 -0.073811 L 0.5 0 L 0.261144 0.07381 "></path>
        </g>
    </g>
</svg>