<svg xmlns="http://www.w3.org/2000/svg"
    xmlns:xlink="http://www.w3.org/1999/xlink" width="500" height="500" preserveAspectRatio="xMidYMid meet">
    <defs>
    </defs>
    <g id="my-board-viewbox" transform="matrix(0 -125 125 0 250 250)">
        <g id="my-board-scene" transform="matrix(1 0 0 1 0 0)">
            <path stroke="gray" stroke-opacity="0.5" stroke-width="0.016" d="M -2.5 -2 L -2.5 2 "></path>
            <path stroke="gray" stroke-opacity="0.5" stroke-width="0.016" d="M -2 -2.5 L 2 -2.5 "></path>
            <path stroke="gray" stroke-opacity="0.5" stroke-width="0.016" d="M -2 -2 L -2 2 "></path>
            <path stroke="gray" stroke-opacity="0.5" stroke-width="0.016" d="M -2 -2 L 2 -2 "></path>
            <path stroke="gray" stroke-opacity="0.5" stroke-width="0.016" d="M -1.5 -2 L -1.5 2 "></path>
            <path stroke="gray" stroke-opacity="0.5" stroke-width="0.016" d="M -2 -1.5 L 2 -1.5 "></path>
            <path stroke="gray" stroke-opacity="0.5" stroke-width="0.016" d="M -1 -2 L -1 2 "></path>
            <path stroke="gray" stroke-opacity="0.5" stroke-width="0.016" d="M -2 -1 L 2 -1 "></path>
            <path stroke="gray" stroke-opacity="0.5" stroke-width="0.016" d="M -0.5 -2 L -0.5 2 "></path>
            <path stroke="gray" stroke-opacity="0.5" stroke-width="0.016" d="M -2 -0.5 L 2 -0.5 "></path>
            <path stroke="gray" stroke-opacity="0.5" stroke-width="0.016" d="M 0 -2 L 0 2 "></path>
            <path stroke="gray" stroke-opacity="0.5" stroke-width="0.016" d="M -2 0 L 2 0 "></path>
            <path stroke="gray" stroke-opacity="0.5" stroke-width="0.016" d="M 0.5 -2 L 0.5 2 "></path>
            <path stroke="gray" stroke-opacity="0.5" stroke-width="0.016" d="M -2 0.5 L 2 0.5 "></path>
            <path stroke="gray" stroke-opacity="0.5" stroke-width="0.016" d="M 1 -2 L 1 2 "></path>
            <path stroke="gray" stroke-opacity="0.5" stroke-width="0.016" d="M -2 1 L 2 1 "></path>
            <path stroke="gray" stroke-opacity="0.5" stroke-width="0.016" d="M 1.5 -2 L 1.5 2 "></path>
            <path stroke="gray" stroke-opacity="0.5" stroke-width="0.016" d="M -2 1.5 L 2 1.5 "></path>
            <path stroke="gray" stroke-opacity="0.5" stroke-width="0.016" d="M 2 -2 L 2 2 "></path>
            <path stroke="gray" stroke-opacity="0.5" stroke-width="0.016" d="M -2 2 L 2 2 "></path>
            <path fill="#FFFF00" fill-opacity="0.3" stroke="#FFCC00" stroke-opacity="0.6" stroke-width="0.032" d="M -0.5 -0.5 L -0.5 0.5 L 0.5 0.5 L 0.5 -0.5 Z " transform="matrix(1 0.999999 0 1 0 0)"></path>
        </g>
    </g>
</svg>