<svg xmlns="http://www.w3.org/2000/svg"
    xmlns:xlink="http://www.w3.org/1999/xlink" width="500" height="500" preserveAspectRatio="xMidYMid meet">
    <defs>
    </defs>
    <g id="my-board-viewbox" transform="matrix(0 -250 250 0 250 250)">
        <g id="my-board-scene" transform="matrix(1 0 0 1 0 0)">
            <path fill="gray" stroke="gray" stroke-width="0.012" d="M 0 0.016 C 0.008836 0.016 0.016 0.008836 0.016 0 C 0.016 -0.008837 0.008836 -0.016 0 -0.016 C -0.008837 -0.016 -0.016 -0.008837 -0.016 -0.000001 C -0.016001 0.008836 -0.008837 0.016 0 0.016 Z " transform="matrix(1 0 0 1 -0.167296 -0.177444)"></path>
            <path fill="gray" stroke="gray" stroke-width="0.012" d="M 0 0.016 C 0.008836 0.016 0.016 0.008836 0.016 0 C 0.016 -0.008837 0.008836 -0.016 0 -0.016 C -0.008837 -0.016 -0.016 -0.008837 -0.016 -0.000001 C -0.016001 0.008836 -0.008837 0.016 0 0.016 Z " transform="matrix(1 0 0 1 -0.344432 -0.365325)"></path>
            <path fill="gray" stroke="gray" stroke-width="0.012" d="M 0 0.016 C 0.008836 0.016 0.016 0.008836 0.016 0 C 0.016 -0.008837 0.008836 -0.016 0 -0.016 C -0.008837 -0.016 -0.016 -0.008837 -0.016 -0.000001 C -0.016001 0.008836 -0.008837 0.016 0 0.016 Z " transform="matrix(1 0 0 1 0.322043 -0.186316)"></path>
            <path fill="gray" stroke="gray" stroke-width="0.012" d="M 0 0.016 C 0.008836 0.016 0.016 0.008836 0.016 0 C 0.016 -0.008837 0.008836 -0.016 0 -0.016 C -0.008837 -0.016 -0.016 -0.008837 -0.016 -0.000001 C -0.016001 0.008836 -0.008837 0.016 0 0.016 Z " transform="matrix(1 0 0 1 0.25617 -0.388158)"></path>
            <path fill="gray" stroke="gray" stroke-width="0.012" d="M 0 0.016 C 0.008836 0.016 0.016 0.008836 0.016 0 C 0.016 -0.008837 0.008836 -0.016 0 -0.016 C -0.008837 -0.016 -0.016 -0.008837 -0.016 -0.000001 C -0.016001 0.008836 -0.008837 0.016 0 0.016 Z " transform="matrix(1 0 0 1 -0.204937 0.310525)"></path>
            <path fill="gray" stroke="gray" stroke-width="0.012" d="M 0 0.016 C 0.008836 0.016 0.016 0.008836 0.016 0 C 0.016 -0.008837 0.008836 -0.016 0 -0.016 C -0.008837 -0.016 -0.016 -0.008837 -0.016 -0.000001 C -0.016001 0.008836 -0.008837 0.016 0 0.016 Z " transform="matrix(1 0 0 1 -0.402554 0.232894)"></path>
            <path fill="gray" stroke="gray" stroke-width="0.012" d="M 0 0.016 C 0.008836 0.016 0.016 0.008836 0.016 0 C 0.016 -0.008837 0.008836 -0.016 0 -0.016 C -0.008837 -0.016 -0.016 -0.008837 -0.016 -0.000001 C -0.016001 0.008836 -0.008837 0.016 0 0.016 Z " transform="matrix(1 0 0 1 0.308175 0.326869)"></path>
            <path fill="gray" stroke="gray" stroke-width="0.012" d="M 0 0.016 C 0.008836 0.016 0.016 0.008836 0.016 0 C 0.016 -0.008837 0.008836 -0.016 0 -0.016 C -0.008837 -0.016 -0.016 -0.008837 -0.016 -0.000001 C -0.016001 0.008836 -0.008837 0.016 0 0.016 Z " transform="matrix(1 0 0 1 0.234213 0.24842)"></path>
            <path stroke="red" stroke-width="0.012" d="M -0.167296 -0.177444 L -0.204937 0.310525 "></path>
            <path stroke="red" stroke-width="0.012" d="M 0.25617 -0.388158 L 0.234213 0.24842 "></path>
            <path stroke="red" stroke-width="0.012" d="M 0.322043 -0.186316 L 0.308175 0.326869 "></path>
            <path stroke="red" stroke-width="0.012" d="M -0.344432 -0.365325 L -0.402554 0.232894 "></path>
            <path stroke="green" stroke-width="0.012" d="M -0.167296 -0.177444 L 0.322043 -0.186316 "></path>
            <path stroke="green" stroke-width="0.012" d="M -0.402554 0.232894 L 0.234213 0.24842 "></path>
            <path stroke="green" stroke-width="0.012" d="M -0.344432 -0.365325 L 0.25617 -0.388158 "></path>
            <path stroke="green" stroke-width="0.012" d="M -0.204937 0.310525 L 0.308175 0.326869 "></path>
            <path stroke="blue" stroke-width="0.012" d="M -0.167296 -0.177444 L -0.344432 -0.365325 "></path>
            <path stroke="blue" stroke-width="0.012" d="M 0.308175 0.326869 L 0.234213 0.24842 "></path>
            <path stroke="blue" stroke-width="0.012" d="M -0.204937 0.310525 L -0.402554 0.232894 "></path>
            <path stroke="blue" stroke-width="0.012" d="M 0.322043 -0.186316 L 0.25617 -0.388158 "></path>
        </g>
    </g>
</svg>